<svg width="36" height="36" viewBox="0 0 36 36" fill="none" xmlns="http://www.w3.org/2000/svg">
<g clip-path="url(#clip0_16_992)">
<path d="M0 18C0 8.05887 8.05887 0 18 0C27.9411 0 36 8.05887 36 18C36 27.9411 27.9411 36 18 36C8.05887 36 0 27.9411 0 18Z" fill="white"/>
<path fill-rule="evenodd" clip-rule="evenodd" d="M0 0H21.6V16.8H0V0Z" fill="#1A47B8"/>
<path fill-rule="evenodd" clip-rule="evenodd" d="M21.6 0V2.4H50.4V0H21.6ZM21.6 4.8V7.2H50.4V4.8H21.6ZM21.6 9.6V12H50.4V9.6H21.6ZM21.6 14.4V16.8H50.4V14.4H21.6ZM0 19.2V21.6H50.4V19.2H0ZM0 24V26.4H50.4V24H0ZM0 28.8V31.2H50.4V28.8H0ZM0 33.6V36H50.4V33.6H0Z" fill="#F93939"/>
<path fill-rule="evenodd" clip-rule="evenodd" d="M2.40039 2.39844V4.79844H4.80039V2.39844H2.40039ZM7.20039 2.39844V4.79844H9.60039V2.39844H7.20039ZM12.0004 2.39844V4.79844H14.4004V2.39844H12.0004ZM16.8004 2.39844V4.79844H19.2004V2.39844H16.8004ZM14.4004 4.79844V7.19844H16.8004V4.79844H14.4004ZM9.60039 4.79844V7.19844H12.0004V4.79844H9.60039ZM4.80039 4.79844V7.19844H7.20039V4.79844H4.80039ZM2.40039 7.19844V9.59844H4.80039V7.19844H2.40039ZM7.20039 7.19844V9.59844H9.60039V7.19844H7.20039ZM12.0004 7.19844V9.59844H14.4004V7.19844H12.0004ZM16.8004 7.19844V9.59844H19.2004V7.19844H16.8004ZM2.40039 11.9984V14.3984H4.80039V11.9984H2.40039ZM7.20039 11.9984V14.3984H9.60039V11.9984H7.20039ZM12.0004 11.9984V14.3984H14.4004V11.9984H12.0004ZM16.8004 11.9984V14.3984H19.2004V11.9984H16.8004ZM14.4004 9.59844V11.9984H16.8004V9.59844H14.4004ZM9.60039 9.59844V11.9984H12.0004V9.59844H9.60039ZM4.80039 9.59844V11.9984H7.20039V9.59844H4.80039Z" fill="white"/>
</g>
<defs>
<clipPath id="clip0_16_992">
<path d="M0 18C0 8.05887 8.05887 0 18 0C27.9411 0 36 8.05887 36 18C36 27.9411 27.9411 36 18 36C8.05887 36 0 27.9411 0 18Z" fill="white"/>
</clipPath>
</defs>
</svg>
