<svg width="25" height="24" viewBox="0 0 25 24" fill="none" xmlns="http://www.w3.org/2000/svg">
<path d="M20.9951 7H4.99512C3.89055 7 2.99512 7.89543 2.99512 9V19C2.99512 20.1046 3.89055 21 4.99512 21H20.9951C22.0997 21 22.9951 20.1046 22.9951 19V9C22.9951 7.89543 22.0997 7 20.9951 7Z" stroke="white" stroke-width="2" stroke-linecap="round" stroke-linejoin="round"/>
<path d="M16.9951 21V5C16.9951 4.46957 16.7844 3.96086 16.4093 3.58579C16.0343 3.21071 15.5256 3 14.9951 3H10.9951C10.4647 3 9.95598 3.21071 9.5809 3.58579C9.20583 3.96086 8.99512 4.46957 8.99512 5V21" stroke="white" stroke-width="2" stroke-linecap="round" stroke-linejoin="round"/>
</svg>
